<svg xmlns="http://www.w3.org/2000/svg" width="114.935" height="123.825" viewBox="0 0 114.935 123.825"><defs><style>.a{fill:#f8c44c;}.b{fill:#5e40c1;}.c{fill:#232323;}</style></defs><g transform="translate(-183.479 -595.69)"><path class="a" d="M36.816,0H73.631a0,0,0,0,1,0,0V36.816A36.816,36.816,0,0,1,36.816,73.631h0A36.816,36.816,0,0,1,0,36.816v0A36.816,36.816,0,0,1,36.816,0Z" transform="matrix(0.966, -0.259, 0.259, 0.966, 202.39, 624.699)"/><path class="b" d="M38.548,0H77.1a0,0,0,0,1,0,0V38.548A38.548,38.548,0,0,1,38.548,77.1h0A38.548,38.548,0,0,1,0,38.548v0A38.548,38.548,0,0,1,38.548,0Z" transform="translate(186.431 650.206) rotate(-45)"/><path class="c" d="M46.922,0H93.844a0,0,0,0,1,0,0V46.922A46.922,46.922,0,0,1,46.922,93.844h0A46.922,46.922,0,0,1,0,46.922v0A46.922,46.922,0,0,1,46.922,0Z" transform="matrix(0.259, -0.966, 0.966, 0.259, 183.479, 695.227)"/><circle class="a" cx="15.593" cy="15.593" r="15.593" transform="translate(246.72 640.615) rotate(60)"/><circle class="b" cx="8.374" cy="8.374" r="8.374" transform="translate(249.52 650.52) rotate(60)"/></g></svg>